<svg xmlns="http://www.w3.org/2000/svg" viewBox="0 0 250 80">
  <!-- Gradient definition -->
  <defs>
    <linearGradient id="grad" x1="0%" y1="0%" x2="100%" y2="0%">
      <stop offset="0%" style="stop-color:#6366F1;stop-opacity:1" />
      <stop offset="100%" style="stop-color:#8B5CF6;stop-opacity:1" />
    </linearGradient>
  </defs>

  <!-- Brain icon -->
  <g transform="translate(15,15) scale(1.5)" stroke="url(#grad)" fill="none" stroke-width="3" stroke-linecap="round" stroke-linejoin="round">
    <path d="M20 10a6 6 0 0 1-6-6m6 6a6 6 0 0 0 6-6m-6 6v16m6-22a6 6 0 0 1 6 6m-6-6a6 6 0 0 0-6 6m12 4a6 6 0 0 1 6 6m-6-6a6 6 0 0 0-6 6m12 4a6 6 0 0 1 6 6m-6-6a6 6 0 0 0-6 6m12 4a6 6 0 0 1 6 6m-6-6a6 6 0 0 0-6 6"/>
  </g>

  <!-- Text -->
  <text x="90" y="50" font-family="Arial, sans-serif" font-size="32" font-weight="bold" fill="url(#grad)">
    QuizAI
  </text>
</svg>
